<svg xmlns="http://www.w3.org/2000/svg" xmlns:xlink="http://www.w3.org/1999/xlink">
    <symbol viewBox="0 0 512 512" id="google">
        <!-- Logo Google -->
        <path
            d="M473.16 221.48l-2.26-9.59H262.46v88.22H387c-12.93 61.4-72.93 93.72-121.94 93.72-35.66 0-73.25-15-98.13-39.11a140.08 140.08 0 01-41.8-98.88c0-37.16 16.7-74.33 41-98.78s61-38.13 97.49-38.13c41.79 0 71.74 22.19 82.94 32.31l62.69-62.36C390.86 72.72 340.34 32 261.6 32c-60.75 0-119 23.27-161.58 65.71C58 139.5 36.25 199.93 36.25 256s20.58 113.48 61.3 155.6c43.51 44.92 105.13 68.4 168.58 68.4 57.73 0 112.45-22.62 151.45-63.66 38.34-40.4 58.17-96.3 58.17-154.9 0-24.67-2.48-39.32-2.59-39.96z" />
    </symbol>
    <symbol viewBox="0 0 512 512" id="playstation">
        <!-- Logo Playstation -->
        <path
            d="M399.77 203c-.8-17.1-3.3-34.5-10.8-50.1a82.45 82.45 0 00-16.5-23.2 105.59 105.59 0 00-21.3-16.3c-17.1-10.2-37.5-17-84.4-31S192 64 192 64v358.3l79.9 25.7s.1-198.8.1-299.5v-3.8c0-9.3 7.5-16.8 16.1-16.8h.5c8.5 0 15.5 7.5 15.5 16.8V278c11 5.3 29.2 9.3 41.8 9.1a47.79 47.79 0 0024-5.7 49.11 49.11 0 0018.4-17.8 78.64 78.64 0 009.9-27.3c1.87-10.8 1.97-22.1 1.57-33.3zM86.67 357.8c27.4-9.8 89.3-29.5 89.3-29.5v-47.2s-76.5 24.8-111.3 37.1c-8.6 3.1-17.3 5.9-25.7 9.5-9.8 4.1-19.4 8.7-28.1 14.8a26.29 26.29 0 00-9.2 10.1 17.36 17.36 0 00-.5 13.6c2 5.1 5.8 9.3 10.1 12.6 7.8 5.9 17.1 9.5 26.4 12.2a262.42 262.42 0 0088.4 13.3c14.5-.2 36-1.9 50-4.4v-42s-11 2.5-41.3 12.5c-4.6 1.5-9.2 3.3-14 4.3a104.87 104.87 0 01-21.6 2.2c-6.5-.3-13.2-.7-19.3-3.1-2.2-1-4.6-2.2-5.5-4.6-.8-2 .3-4 1.7-5.4 2.8-2.9 6.8-4.5 10.6-6z" />
        <path
            d="M512 345.9c-.1-6-3.7-11.2-7.9-15-7.1-6.3-15.9-10.3-24.7-13.5-5.5-1.9-9.3-3.3-14.7-5-25.2-8.2-51.9-11.2-78.3-11.3-8 .3-23.1.5-31 1.4-21.9 2.5-67.3 15.4-67.3 15.4v48.8s67.5-21.6 96.5-31.8a94.43 94.43 0 0130.3-4.6c6.5.2 13.2.7 19.4 3.1 2.2.9 4.5 2.2 5.5 4.5.9 2.6-.9 5-2.9 6.5-4.7 3.8-10.7 5.3-16.2 7.4-41 14.5-132.7 44.7-132.7 44.7v47s117.2-39.6 170.8-58.8c8.9-3.3 17.9-6.1 26.4-10.4 7.9-4 15.8-8.6 21.8-15.3a19.74 19.74 0 005-13.1z" />
    </symbol>
    <symbol viewBox="0 0 512 512" id="xbox">
        <!-- Logo Xbox -->
        <path
            d="M126.8 248.3c39.7-58.6 77.9-92.8 77.9-92.8s-42.1-48.9-92.8-67.4l-3.3-.8A224.13 224.13 0 0077.2 391c0-4.4.6-70.3 49.6-142.7zM480 256a223.71 223.71 0 00-76.6-168.7l-3.2.9c-50.7 18.5-92.9 67.4-92.9 67.4s38.2 34.2 77.9 92.8c49 72.4 49.6 138.3 49.5 142.7A222.8 222.8 0 00480 256zM201.2 80.9c29.3 13.1 54.6 34.6 54.6 34.6s25.5-21.4 54.8-34.6c36.8-16.5 64.9-11.3 72.3-9.5a224.06 224.06 0 00-253.8 0c7.2-1.8 35.2-7.1 72.1 9.5zM358.7 292.9C312.4 236 255.8 199 255.8 199s-56.3 37-102.7 93.9c-39.8 48.9-54.6 84.8-62.6 107.8l-1.3 4.8a224 224 0 00333.6 0l-1.4-4.8c-8-23-22.9-58.9-62.7-107.8z" />
    </symbol>
    <symbol viewBox="0 0 512 512" id="windows">
        <!-- Logo Windows -->
        <path
            d="M480 265H232v179l248 36V265zM216 265H32v150l184 26.7V265zM480 32L232 67.4V249h248V32zM216 69.7L32 96v153h184V69.7z" />
    </symbol>
    <symbol viewBox="0 0 512 512" id="windows">
        <!-- Logo Windows -->
        <path
            d="M480 265H232v179l248 36V265zM216 265H32v150l184 26.7V265zM480 32L232 67.4V249h248V32zM216 69.7L32 96v153h184V69.7z" />
    </symbol>
    <symbol viewBox="0 0 512 512" id="apple">
        <!-- Logo Apple -->
        <path
            d="M349.13 136.86c-40.32 0-57.36 19.24-85.44 19.24-28.79 0-50.75-19.1-85.69-19.1-34.2 0-70.67 20.88-93.83 56.45-32.52 50.16-27 144.63 25.67 225.11 18.84 28.81 44 61.12 77 61.47h.6c28.68 0 37.2-18.78 76.67-19h.6c38.88 0 46.68 18.89 75.24 18.89h.6c33-.35 59.51-36.15 78.35-64.85 13.56-20.64 18.6-31 29-54.35-76.19-28.92-88.43-136.93-13.08-178.34-23-28.8-55.32-45.48-85.79-45.48z" />
        <path
            d="M340.25 32c-24 1.63-52 16.91-68.4 36.86-14.88 18.08-27.12 44.9-22.32 70.91h1.92c25.56 0 51.72-15.39 67-35.11 14.72-18.77 25.88-45.37 21.8-72.66z" />
    </symbol>
</svg>